PathFileType	4	(x/y/z)	S10_M20_T60
DataRate	CameraRate	NumFrames	NumMarkers	Units	OrigDataRate	OrigDataStartFrame	OrigNumFrames
240	240	5	51	mm	240	259	517
Frame#	Time	Sternum			R.Acromium			L.Acromium			Top.Head			R.ASIS			L.ASIS			R.PSIS			L.PSIS			R.Great.Tro			L.Great.Tro			R.Iliac.Crest			L.Iliac.Crest			V.Sacral			R.Thigh.Upper.Post			R.Thigh.Lower.Ant			R.Thigh.Lower.Post			R.Thigh.Upper.Ant			R.Knee.Lat			R.Knee.Med			R.Shank.Upper.Post			R.Shank.Lower.Ant			R.Shank.Lower.Post			R.Shank.Upper.Ant			R.Ankle.Lat			R.Ankle.Med			R.Heel.Upper			R.Heel.Med			R.Heel.Lat			R.Toe.Lat			R.Toe.Med			R.Toe.Tip			L.Thigh.Upper.Post			L.Thigh.Lower.Ant			L.Thigh.Lower.Post			L.Thigh.Upper.Ant			L.Knee.Lat			L.Knee.Med			L.Shank.Upper.Post			L.Shank.Lower.Ant			L.Shank.Lower.Post			L.Shank.Upper.Ant			L.Ankle.Lat			L.Ankle.Med			L.Heel.Upper			L.Heel.Med			L.Heel.Lat			L.Toe.Lat			L.Toe.Med			L.Toe.Tip			Cervical.Spine			Back			
		X1	Y1	Z1	X2	Y2	Z2	X3	Y3	Z3	X4	Y4	Z4	X5	Y5	Z5	X6	Y6	Z6	X7	Y7	Z7	X8	Y8	Z8	X9	Y9	Z9	X10	Y10	Z10	X11	Y11	Z11	X12	Y12	Z12	X13	Y13	Z13	X14	Y14	Z14	X15	Y15	Z15	X16	Y16	Z16	X17	Y17	Z17	X18	Y18	Z18	X19	Y19	Z19	X20	Y20	Z20	X21	Y21	Z21	X22	Y22	Z22	X23	Y23	Z23	X24	Y24	Z24	X25	Y25	Z25	X26	Y26	Z26	X27	Y27	Z27	X28	Y28	Z28	X29	Y29	Z29	X30	Y30	Z30	X31	Y31	Z31	X32	Y32	Z32	X33	Y33	Z33	X34	Y34	Z34	X35	Y35	Z35	X36	Y36	Z36	X37	Y37	Z37	X38	Y38	Z38	X39	Y39	Z39	X40	Y40	Z40	X41	Y41	Z41	X42	Y42	Z42	X43	Y43	Z43	X44	Y44	Z44	X45	Y45	Z45	X46	Y46	Z46	X47	Y47	Z47	X48	Y48	Z48	X49	Y49	Z49	X50	Y50	Z50	X51	Y51	Z51	

259	1.075	669.67	1286.4	349.31	554.06	1436.6	507.76	543.32	1467.1	200.11	516.45	1756.1	392.9	625.18	1013.7	458.56	613.09	1029.3	227.18	420.3	1035.1	379.04	422.37	1041	297.16	558.38	934.7	530.91	550.99	965.96	169.77	531.06	1093.2	506.57	540.52	1103.1	201.93	399.49	1003.9	340.99	577.51	721.42	510.17	628.84	646.57	462.5	569.14	633.16	494.64	638.63	737.01	473.55	563.1	509.62	446.78	535.49	521.07	323.54	467.25	292.03	449.49	521.11	223.28	421.56	458.62	218.66	440.15	536.38	298.54	429.47	455.3	112.18	415.22	458.28	125.39	334.91	386.52	67.362	370.63	393.94	39.01	344.11	391.1	44.657	406.13	563.99	41.609	445.94	590.9	42.31	335.59	650.18	58.332	377.57	613.22	688.85	158.45	710.39	640.29	169.83	649.97	601.8	174.49	682.37	725.39	153.74	699.99	537.37	176.34	734.63	528.36	304.74	555.37	381.82	179.83	575.19	272.78	175.51	524.68	310.39	184.48	607.35	343.07	171.55	495.41	182.91	184.4	525.45	181.17	265.81	429.08	175.67	236.94	430.18	140.13	267.16	419.24	147.73	203.92	569.73	71.278	143.67	610.88	62.563	243.93	658.7	60.255	192.32	470.26	1502.8	370.55	387.25	1295	355.29
260	1.0792	674.18	1286.6	349.38	559.08	1437.1	507.75	547.35	1467	200.11	521.47	1756.3	392.55	629.45	1013.6	458.74	617.74	1029.6	227.36	424.74	1035.1	378.88	426.89	1041.3	297.02	562.22	934.46	530.89	555.88	966.65	169.71	535.4	1093.1	506.64	545.08	1103.5	202.14	403.97	1004.1	340.74	580.01	721.23	510.19	630.95	645.99	462.62	571.07	633.01	494.63	641.32	736.36	473.73	564.14	509.48	446.97	537.18	520.88	323.57	467.63	292.17	449.57	521.32	223.32	421.66	458.88	218.81	440.15	536.85	298.52	429.64	455.42	112.28	415.22	458.51	125.53	334.9	386.54	67.425	370.62	393.95	39.063	344.11	391.12	44.745	406.11	564.02	41.605	445.93	590.89	42.266	335.56	650.23	58.242	377.57	619.94	689.8	157.98	717.3	641.75	170.46	656.96	602.94	174.3	688.97	726.72	154.23	707.26	538.49	176.76	740.77	529.73	305.31	565.61	379.49	179.57	587.95	270.95	175.32	536.53	307.38	184.08	618.47	341.94	171.45	510.15	179.31	183.78	540.14	177.97	265.23	443.83	170.14	236.25	445.83	134.55	266.39	434.81	142.05	203.22	587.32	69.709	142.88	628.54	61.642	243.19	676.52	60.75	191.62	474.9	1502.9	370.74	391.82	1295.1	355.82
261	1.0833	678.72	1286.7	349.42	564.12	1437.6	507.73	551.4	1466.8	200.12	526.49	1756.4	392.19	633.74	1013.4	458.89	622.38	1030	227.5	429.18	1035.1	378.72	431.42	1041.5	296.88	566.08	934.2	530.87	560.75	967.27	169.65	539.76	1092.9	506.7	549.65	1103.8	202.32	408.45	1004.2	340.49	582.52	721.02	510.21	633.08	645.4	462.74	573.04	632.84	494.63	644.03	735.69	473.9	565.19	509.33	447.16	538.86	520.69	323.61	468.01	292.31	449.65	521.55	223.36	421.77	459.14	218.96	440.14	537.33	298.51	429.81	455.54	112.37	415.21	458.76	125.68	334.9	386.56	67.487	370.6	393.97	39.113	344.11	391.15	44.832	406.08	564.05	41.601	445.92	590.86	42.223	335.53	650.28	58.151	377.59	626.58	690.68	157.54	724.09	643.1	171.11	663.86	604	174.14	695.48	727.96	154.73	714.43	539.53	177.18	746.8	530.99	305.89	575.87	377.12	179.3	600.75	269.14	175.13	548.43	304.36	183.66	629.59	340.8	171.35	524.98	175.75	183.17	554.93	174.83	264.64	458.74	164.67	235.56	461.63	129.05	265.61	450.54	136.45	202.5	604.95	68.235	142.11	646.22	60.827	242.49	694.32	61.339	190.95	479.56	1503	370.91	396.41	1295.2	356.35
262	1.0875	683.26	1286.7	349.45	569.18	1438	507.71	555.48	1466.5	200.12	531.51	1756.5	391.82	638.03	1013.2	459.01	627.02	1030.3	227.62	433.63	1035.1	378.55	435.94	1041.6	296.73	569.95	933.92	530.82	565.59	967.82	169.57	544.13	1092.7	506.74	554.22	1104.1	202.48	412.94	1004.2	340.24	585.06	720.79	510.22	635.23	644.81	462.86	575.03	632.66	494.62	646.74	735.01	474.06	566.27	509.18	447.34	540.55	520.5	323.64	468.4	292.46	449.73	521.8	223.4	421.89	459.4	219.12	440.12	537.81	298.48	429.99	455.67	112.46	415.2	459.04	125.83	334.9	386.59	67.548	370.57	394	39.158	344.11	391.18	44.919	406.05	564.08	41.597	445.91	590.83	42.178	335.51	650.32	58.06	377.61	633.14	691.49	157.15	730.77	644.36	171.77	670.66	604.98	174.01	701.92	729.11	155.24	721.49	540.49	177.6	752.73	532.14	306.46	586.16	374.71	179	613.59	267.36	174.95	560.38	301.35	183.21	640.71	339.66	171.24	539.91	172.25	182.55	569.79	171.74	264.06	473.79	159.27	234.85	477.56	123.66	264.83	466.42	130.94	201.77	622.61	66.859	141.38	663.91	60.126	241.82	712.1	62.025	190.33	484.23	1503.1	371.08	401	1295.2	356.86
263	1.0917	687.82	1286.7	349.45	574.24	1438.4	507.67	559.58	1466.3	200.12	536.52	1756.6	391.45	642.33	1012.9	459.09	631.67	1030.5	227.71	438.08	1035.1	378.38	440.47	1041.7	296.58	573.83	933.62	530.77	570.41	968.31	169.49	548.5	1092.4	506.77	558.79	1104.3	202.62	417.42	1004.3	339.99	587.62	720.55	510.22	637.39	644.21	462.97	577.06	632.47	494.61	649.46	734.31	474.22	567.36	509.01	447.52	542.22	520.31	323.67	468.8	292.6	449.8	522.06	223.44	422.03	459.66	219.27	440.1	538.32	298.46	430.17	455.81	112.56	415.19	459.34	125.98	334.9	386.63	67.61	370.53	394.04	39.201	344.11	391.21	45.007	406.02	564.1	41.595	445.91	590.8	42.133	335.5	650.37	57.968	377.64	639.62	692.23	156.81	737.34	645.51	172.43	677.37	605.87	173.92	708.27	730.16	155.77	728.46	541.36	178.02	758.57	533.17	307.02	596.47	372.26	178.7	626.45	265.61	174.76	572.38	298.33	182.75	651.83	338.51	171.13	554.93	168.82	181.93	584.73	168.72	263.47	488.99	153.96	234.13	493.64	118.37	264.04	482.44	125.53	201.02	640.31	65.585	140.69	681.6	59.545	241.19	729.85	62.812	189.75	488.93	1503.1	371.23	405.61	1295.2	357.37
